<?xml version="1.0" encoding="utf-8"?>
<!-- Generator: Adobe Illustrator 28.2.0, SVG Export Plug-In . SVG Version: 6.00 Build 0)  -->
<svg version="1.1" id="Ebene_1" xmlns="http://www.w3.org/2000/svg" xmlns:xlink="http://www.w3.org/1999/xlink" x="0px" y="0px"
	 viewBox="0 0 841.9 595.3" style="enable-background:new 0 0 841.9 595.3;" xml:space="preserve">
<style type="text/css">
	.st0{fill:#FFFFFF;}
	.st1{font-family:'AcuminProSemiCond-Medium';}
	.st2{font-size:140.657px;}
</style>
<g>
	<path class="st0" d="M251,216.4c-31.8,0-57.6,25.8-57.6,57.6c0,11.5,3.4,22.2,9.1,31.1l6.5-10.8c-3-6.1-4.7-13-4.7-20.3
		c0-25.7,20.9-46.6,46.6-46.6s46.6,20.9,46.6,46.6s-20.9,46.6-46.6,46.6c-13.9,0-26.4-6.1-34.9-15.8l-5.7,10
		c10.4,10.4,24.8,16.8,40.7,16.8c31.8,0,57.6-25.8,57.6-57.6S282.8,216.4,251,216.4z"/>
	<path class="st0" d="M206.2,342.1h-12.4l57.5-96.9l32.7,55.3l-7.9,7.2L251,266.2L206.2,342.1z M307.3,342.1h-11.2l-10.3-17.6
		l7.9-6.2L307.3,342.1z"/>
	<g>
		<path class="st0" d="M157.1,256.5h-28v-11.4h64.2l-4.5,11.4h-18.2v85.5h-13.5V256.5z"/>
	</g>
	<text transform="matrix(1 0 0 1 310.7752 342.0619)" class="st0 st1 st2">IM.ING</text>
</g>
</svg>
